<svg width="34" height="102" viewBox="0 0 34 102" fill="none" xmlns="http://www.w3.org/2000/svg">
<path d="M0.0166877 0.97009C0.00251067 0.694311 0.214582 0.459258 0.490362 0.445085L4.98443 0.21406C5.2602 0.19988 5.49526 0.411951 5.50944 0.68773C5.52361 0.963509 5.31154 1.19856 5.03576 1.21274L1.04104 1.41809L1.24639 5.41282C1.26057 5.6886 1.0485 5.92365 0.772722 5.93783C0.496942 5.95201 0.261887 5.73993 0.247709 5.46416L0.0166877 0.97009ZM23.3855 100.636C28.6516 91.2397 33.7816 76.2725 32.1358 58.7342C30.4913 41.2097 22.0777 21.0711 0.181092 1.31566L0.850966 0.573186C22.9177 20.4821 31.4616 40.8461 33.1314 58.6408C34.8 76.4219 29.6012 91.5908 24.2578 101.125L23.3855 100.636Z" fill="white"/>
</svg>
